<svg width="60" height="60" xmlns="http://www.w3.org/2000/svg"><g transform="translate(3 16)" stroke-linecap="round" stroke="#2ab7b7" stroke-width="2" fill="none" fill-rule="evenodd"><path d="M36 30H16h0a5 5 0 0 0-10 0H0v-9.84C0 19.105 3.095 17 5.202 17c.554 0 7.765 5.268 10.59-2.855 2.574-7.404-7.948-5.86-7.232-7.335C9.366 5.145 10 4 10 4h36.892c2.821 0 5.369 2.262 5.694 5.075L55 30h-9a5 5 0 0 0-10 0zM14 0h4v4h-4V0z" stroke-linejoin="round"/><circle cx="11" cy="30" r="5"/><circle cx="41" cy="30" r="5"/><path d="M11 8l-5 9"/><path d="M32 14v-4h-4v4h-4v4h4v4h4v-4h4v-4h-4z"/></g></svg>