<svg width="60" height="60" xmlns="http://www.w3.org/2000/svg"><g transform="translate(2 11)" stroke="#2ab7b7" stroke-width="2" stroke-linejoin="round" fill="none" fill-rule="evenodd"><path d="M33 8l6-7.05L45 8v33H33V8z" stroke-linecap="round"/><path d="M10 8l6-7.05L22 8v33H10V8z" stroke-linecap="round"/><path d="M9 22H0V12h9"/><path d="M9 36H0V26h9"/><path d="M46 12h9v10h-9"/><path d="M46 26h9v10h-9"/><path d="M24 12h7" stroke-linecap="square"/><path d="M24 22h7" stroke-linecap="square"/><path d="M24 26h7" stroke-linecap="square"/><path d="M24 36h7" stroke-linecap="square"/><circle stroke-linecap="round" cx="39" cy="17" r="2"/><circle stroke-linecap="round" cx="39" cy="31" r="2"/><circle stroke-linecap="round" cx="16" cy="17" r="2"/><circle stroke-linecap="round" cx="16" cy="31" r="2"/></g></svg>